<svg xmlns="http://www.w3.org/2000/svg" fill="none" viewBox="0 0 268 163" height="163" width="268">
<path fill="#1D1D1D" d="M8.47389 137.582C10.3587 137.582 11.9381 138.051 13.2121 138.983C14.5009 139.921 15.462 141.173 16.1027 142.737C16.7359 144.287 17.0563 146.001 17.0563 147.863C17.0563 149.815 16.7359 151.558 16.1027 153.108C15.462 154.643 14.5009 155.864 13.2121 156.773C11.9381 157.69 10.3587 158.144 8.47389 158.144H0.994084C0.733333 158.144 0.524733 158.07 0.368283 157.906C0.204384 157.727 0.129883 157.511 0.129883 157.25V138.476C0.129883 138.223 0.204384 138.014 0.368283 137.85C0.524733 137.671 0.733333 137.582 0.994084 137.582H8.47389ZM8.17589 156.416C10.5375 156.416 12.2957 155.633 13.4505 154.061C14.5978 152.475 15.1789 150.411 15.1789 147.863C15.1789 146.276 14.9256 144.846 14.4339 143.572C13.9571 142.283 13.1897 141.262 12.1393 140.502C11.0814 139.728 9.76274 139.34 8.17589 139.34H1.97748V156.416H8.17589Z"></path>
<path fill="#1D1D1D" d="M41.2773 156.416C41.5157 156.416 41.7094 156.505 41.8733 156.684C42.0521 156.863 42.1415 157.064 42.1415 157.28C42.1415 157.541 42.0521 157.749 41.8733 157.906C41.7094 158.07 41.5157 158.144 41.2773 158.144H30.4897C30.2289 158.144 30.0203 158.07 29.8639 157.906C29.7 157.727 29.6255 157.511 29.6255 157.25V138.476C29.6255 138.223 29.7 138.014 29.8639 137.85C30.0203 137.671 30.2289 137.582 30.4897 137.582H41.2773C41.5157 137.582 41.7094 137.671 41.8733 137.85C42.0521 138.014 42.1415 138.223 42.1415 138.476C42.1415 138.737 42.0521 138.945 41.8733 139.102C41.7094 139.266 41.5157 139.34 41.2773 139.34H31.4731V146.701H39.9363C40.1896 146.701 40.3982 146.79 40.5621 146.969C40.7409 147.133 40.8303 147.327 40.8303 147.565C40.8303 147.826 40.7409 148.034 40.5621 148.191C40.3982 148.355 40.1896 148.429 39.9363 148.429H31.4731V156.416H41.2773Z"></path>
<path fill="#1D1D1D" d="M69.6791 139.131C69.9771 139.31 70.1261 139.548 70.1261 139.846C70.1261 140.025 70.0516 140.226 69.9175 140.442C69.7387 140.666 69.5077 140.77 69.2321 140.77C69.0682 140.77 68.9117 140.726 68.7553 140.621C67.2057 139.593 65.4922 139.072 63.6297 139.072C62.0354 139.072 60.5975 139.452 59.3087 140.204C58.0347 140.942 57.029 141.985 56.2988 143.333C55.5613 144.667 55.1962 146.179 55.1962 147.863C55.1962 149.613 55.5613 151.163 56.2988 152.511C57.0513 153.845 58.0645 154.881 59.3385 155.611C60.6273 156.348 62.0577 156.713 63.6297 156.713C65.4922 156.713 67.1908 156.207 68.7255 155.193C68.8819 155.097 69.0533 155.044 69.2321 155.044C69.5077 155.044 69.7387 155.156 69.9175 155.372C70.0516 155.536 70.1261 155.722 70.1261 155.938C70.1261 156.259 69.9845 156.497 69.7089 156.654C68.9341 157.153 67.9879 157.577 66.8779 157.935C65.7604 158.27 64.6801 158.442 63.6297 158.442C61.7597 158.442 60.0388 157.995 58.4743 157.101C56.9023 156.207 55.6507 154.97 54.7194 153.376C53.7807 151.766 53.3188 149.934 53.3188 147.863C53.3188 145.896 53.7733 144.108 54.6896 142.499C55.6209 140.875 56.8651 139.608 58.4147 138.714C59.9792 137.805 61.7225 137.343 63.6297 137.343C64.7174 137.343 65.7902 137.507 66.8481 137.82C67.8985 138.118 68.8447 138.558 69.6791 139.131Z"></path>
<path fill="#1D1D1D" d="M100.545 147.863C100.545 149.889 100.128 151.707 99.2934 153.316C98.459 154.91 97.2968 156.162 95.8068 157.071C94.3168 157.987 92.6182 158.442 90.711 158.442C88.8187 158.442 87.135 157.987 85.645 157.071C84.155 156.162 82.9779 154.91 82.1286 153.316C81.2942 151.707 80.877 149.889 80.877 147.863C80.877 145.836 81.2942 144.018 82.1286 142.409C82.9779 140.8 84.155 139.548 85.645 138.654C87.135 137.76 88.8187 137.313 90.711 137.313C92.6182 137.313 94.3168 137.76 95.8068 138.654C97.2968 139.548 98.459 140.8 99.2934 142.409C100.128 144.018 100.545 145.836 100.545 147.863ZM98.6676 147.863C98.6676 146.179 98.3249 144.667 97.6544 143.333C96.9764 141.985 96.0303 140.942 94.8234 140.204C93.6314 139.452 92.2606 139.072 90.711 139.072C89.1614 139.072 87.7757 139.452 86.5688 140.204C85.3768 140.942 84.4381 141.985 83.7676 143.333C83.0896 144.667 82.7544 146.179 82.7544 147.863C82.7544 149.576 83.0896 151.103 83.7676 152.452C84.4381 153.785 85.3768 154.828 86.5688 155.581C87.7757 156.318 89.1614 156.683 90.711 156.683C92.2606 156.683 93.6314 156.318 94.8234 155.581C96.0303 154.828 96.9764 153.785 97.6544 152.452C98.3249 151.103 98.6676 149.576 98.6676 147.863Z"></path>
<path fill="#1D1D1D" d="M128.112 156.565C128.41 156.766 128.559 157.004 128.559 157.28C128.559 157.384 128.514 157.511 128.44 157.667C128.358 157.809 128.246 157.921 128.112 157.995C127.97 158.077 127.821 158.114 127.665 158.114C127.464 158.114 127.292 158.077 127.158 157.995C126.622 157.682 126.182 157.176 125.847 156.475C125.504 155.76 125.341 154.643 125.341 153.108C125.341 151.737 124.961 150.776 124.208 150.217C123.448 149.644 122.539 149.353 121.467 149.353H114.97V157.25C114.97 157.511 114.888 157.727 114.732 157.906C114.568 158.07 114.359 158.144 114.106 158.144C113.823 158.144 113.584 158.07 113.391 157.906C113.212 157.727 113.123 157.511 113.123 157.25V138.476C113.123 138.223 113.197 138.014 113.361 137.85C113.517 137.671 113.726 137.582 113.987 137.582H121.914C123.024 137.582 124.014 137.835 124.894 138.327C125.788 138.804 126.48 139.459 126.98 140.294C127.471 141.128 127.725 142.082 127.725 143.155C127.725 144.406 127.397 145.509 126.741 146.462C126.086 147.401 125.229 148.042 124.178 148.399C125.028 148.742 125.728 149.308 126.264 150.098C126.816 150.895 127.106 151.856 127.129 152.989C127.143 154.203 127.225 155.06 127.367 155.551C127.523 156.028 127.769 156.371 128.112 156.565ZM122.003 147.744C122.696 147.684 123.329 147.468 123.91 147.088C124.506 146.693 124.968 146.164 125.311 145.509C125.668 144.838 125.847 144.071 125.847 143.214C125.847 142.082 125.467 141.158 124.715 140.443C123.955 139.713 122.971 139.34 121.765 139.34H114.97V147.744H122.003Z"></path>
<path fill="#1D1D1D" d="M156.497 156.981C156.535 157.123 156.557 157.235 156.557 157.309C156.557 157.57 156.468 157.779 156.289 157.935C156.11 158.099 155.901 158.173 155.663 158.173C155.462 158.173 155.29 158.129 155.156 158.024C155.015 157.905 154.903 157.756 154.829 157.577L152.623 152.213H143.087L140.912 157.577C140.748 157.98 140.48 158.173 140.107 158.173C139.824 158.173 139.616 158.106 139.482 157.965C139.362 157.831 139.288 157.637 139.273 157.399V157.309C139.273 157.212 139.28 157.13 139.303 157.071L147.051 138.088C147.185 137.716 147.475 137.522 147.915 137.522C148.109 137.522 148.28 137.574 148.422 137.671C148.578 137.775 148.697 137.909 148.779 138.088L156.497 156.981ZM143.743 150.485H151.908L147.796 140.442L143.743 150.485Z"></path>
<path fill="#1D1D1D" d="M183.79 155.372C183.924 155.536 183.998 155.722 183.998 155.938C183.998 156.259 183.857 156.497 183.581 156.654C182.866 157.116 182.002 157.51 180.988 157.846C179.99 158.181 178.999 158.382 178.008 158.442L176.459 161.779C176.295 162.174 176.042 162.375 175.684 162.375C175.446 162.375 175.177 162.271 174.879 162.077C174.596 161.876 174.462 161.66 174.462 161.422C174.462 161.198 174.522 161.034 174.641 160.915L176.638 158.412C174.909 158.27 173.315 157.749 171.87 156.832C170.439 155.901 169.292 154.657 168.443 153.107C167.608 151.558 167.191 149.815 167.191 147.863C167.191 145.896 167.645 144.108 168.562 142.499C169.493 140.875 170.737 139.608 172.287 138.714C173.851 137.805 175.595 137.343 177.502 137.343C178.589 137.343 179.662 137.507 180.72 137.82C181.771 138.118 182.717 138.558 183.551 139.131C183.849 139.31 183.998 139.548 183.998 139.846C183.998 140.025 183.924 140.226 183.79 140.442C183.611 140.666 183.38 140.77 183.104 140.77C182.94 140.77 182.784 140.726 182.627 140.621C181.078 139.593 179.364 139.072 177.502 139.072C175.907 139.072 174.47 139.452 173.181 140.204C171.907 140.942 170.901 141.985 170.171 143.333C169.433 144.667 169.068 146.179 169.068 147.863C169.068 149.613 169.433 151.163 170.171 152.511C170.923 153.845 171.937 154.881 173.211 155.611C174.499 156.348 175.93 156.713 177.502 156.713C179.364 156.713 181.063 156.207 182.598 155.193C182.754 155.097 182.925 155.044 183.104 155.044C183.38 155.044 183.611 155.156 183.79 155.372Z"></path>
<path fill="#1D1D1D" d="M214.418 147.863C214.418 149.889 214 151.707 213.166 153.316C212.332 154.911 211.169 156.162 209.679 157.071C208.189 157.987 206.491 158.442 204.584 158.442C202.691 158.442 201.008 157.987 199.518 157.071C198.028 156.162 196.85 154.911 196.001 153.316C195.167 151.707 194.75 149.889 194.75 147.863C194.75 145.836 195.167 144.019 196.001 142.409C196.85 140.8 198.028 139.549 199.518 138.655C201.008 137.761 202.691 137.314 204.584 137.314C206.491 137.314 208.189 137.761 209.679 138.655C211.169 139.549 212.332 140.8 213.166 142.409C214 144.019 214.418 145.836 214.418 147.863ZM212.54 147.863C212.54 146.179 212.197 144.667 211.527 143.333C210.849 141.985 209.903 140.942 208.696 140.204C207.504 139.452 206.133 139.072 204.584 139.072C203.034 139.072 201.648 139.452 200.441 140.204C199.249 140.942 198.311 141.985 197.64 143.333C196.962 144.667 196.627 146.179 196.627 147.863C196.627 149.576 196.962 151.104 197.64 152.452C198.311 153.786 199.249 154.829 200.441 155.581C201.648 156.319 203.034 156.684 204.584 156.684C206.133 156.684 207.504 156.319 208.696 155.581C209.903 154.829 210.849 153.786 211.527 152.452C212.197 151.104 212.54 149.576 212.54 147.863ZM200.799 135.526C200.575 135.526 200.397 135.451 200.263 135.287C200.143 135.131 200.084 134.892 200.084 134.572C200.084 134.416 200.091 134.296 200.114 134.214C200.248 133.618 200.546 133.142 201.008 132.784C201.484 132.426 202.036 132.248 202.676 132.248C203.034 132.248 203.399 132.337 203.779 132.516C204.151 132.68 204.591 132.918 205.09 133.231C205.507 133.492 205.835 133.678 206.074 133.797C206.327 133.902 206.558 133.946 206.759 133.946C207.035 133.946 207.251 133.849 207.415 133.648C207.571 133.455 207.668 133.171 207.713 132.814C207.69 132.598 207.742 132.419 207.862 132.277C207.981 132.121 208.145 132.039 208.368 132.039C208.607 132.039 208.785 132.128 208.905 132.307C209.039 132.471 209.113 132.695 209.113 132.993L209.083 133.32C208.964 133.961 208.681 134.468 208.249 134.84C207.832 135.22 207.31 135.406 206.699 135.406C206.141 135.406 205.358 135.094 204.345 134.453C203.906 134.2 203.555 134.006 203.302 133.887C203.041 133.767 202.803 133.708 202.587 133.708C202.304 133.708 202.065 133.812 201.872 134.006C201.671 134.185 201.529 134.475 201.455 134.87C201.455 135.094 201.38 135.257 201.246 135.377C201.127 135.481 200.978 135.526 200.799 135.526Z"></path>
<path fill="#1D1D1D" d="M238.647 156.416C238.885 156.416 239.079 156.505 239.243 156.684C239.422 156.863 239.511 157.064 239.511 157.28C239.511 157.541 239.422 157.749 239.243 157.906C239.079 158.07 238.885 158.144 238.647 158.144H227.859C227.599 158.144 227.39 158.07 227.234 157.906C227.07 157.727 226.995 157.511 226.995 157.25V138.476C226.995 138.223 227.07 138.014 227.234 137.85C227.39 137.671 227.599 137.582 227.859 137.582H238.647C238.885 137.582 239.079 137.671 239.243 137.85C239.422 138.014 239.511 138.223 239.511 138.476C239.511 138.737 239.422 138.945 239.243 139.102C239.079 139.266 238.885 139.34 238.647 139.34H228.843V146.701H237.306C237.559 146.701 237.768 146.79 237.932 146.969C238.111 147.133 238.2 147.327 238.2 147.565C238.2 147.826 238.111 148.034 237.932 148.191C237.768 148.355 237.559 148.429 237.306 148.429H228.843V156.416H238.647Z"></path>
<path fill="#1D1D1D" d="M257.602 158.442C256.187 158.442 254.935 158.211 253.847 157.756C252.775 157.279 251.717 156.534 250.689 155.521C250.45 155.328 250.331 155.097 250.331 154.836C250.331 154.597 250.42 154.381 250.599 154.18C250.793 153.987 251.016 153.882 251.255 153.882C251.493 153.882 251.709 153.987 251.91 154.18C253.415 155.871 255.323 156.713 257.632 156.713C259.04 156.713 260.202 156.385 261.119 155.73C262.05 155.059 262.519 154.18 262.519 153.107C262.519 152.258 262.288 151.55 261.834 150.992C261.372 150.44 260.769 149.993 260.016 149.651C259.279 149.293 258.332 148.928 257.185 148.548C255.933 148.176 254.876 147.766 254.026 147.326C253.17 146.872 252.477 146.268 251.94 145.508C251.419 144.756 251.165 143.802 251.165 142.648C251.165 141.62 251.441 140.703 252 139.906C252.551 139.094 253.341 138.461 254.354 137.999C255.367 137.544 256.529 137.313 257.841 137.313C259.033 137.313 260.143 137.515 261.178 137.909C262.229 138.312 263.071 138.878 263.711 139.608C263.987 139.951 264.128 140.234 264.128 140.472C264.128 140.696 264.024 140.904 263.83 141.098C263.652 141.277 263.443 141.366 263.205 141.366C263.004 141.366 262.832 141.299 262.698 141.158C262.177 140.524 261.476 140.018 260.582 139.638C259.703 139.243 258.794 139.042 257.841 139.042C256.41 139.042 255.233 139.362 254.324 139.995C253.43 140.636 252.983 141.5 252.983 142.588C252.983 143.72 253.408 144.6 254.265 145.21C255.136 145.806 256.38 146.365 257.99 146.879C259.36 147.282 260.478 147.699 261.357 148.131C262.251 148.57 262.974 149.189 263.532 149.978C264.084 150.776 264.367 151.819 264.367 153.107C264.367 154.106 264.076 155.007 263.503 155.819C262.922 156.639 262.117 157.279 261.089 157.756C260.076 158.211 258.913 158.442 257.602 158.442Z"></path>
<path stroke-width="1.33333" stroke="#1D1D1D" fill="#1D1D1D" d="M38.6156 41.5712C37.2336 41.1256 35.9853 40.8341 34.8724 40.7125C41.214 37.6503 46.6914 36.5735 51.3351 37.3748L51.3372 37.3751C56.5457 38.2567 60.5781 40.7419 63.4873 44.8351C66.3998 48.9435 67.882 54.1289 67.882 60.4277V103.118H45.081V52.6053C45.081 49.3855 44.4726 46.8424 43.165 45.0583C41.9216 43.3266 40.4094 42.1525 38.6166 41.5715L38.6156 41.5712ZM82.2526 41.5735C80.9226 41.1281 79.7102 40.8361 78.6211 40.7136C84.9637 37.6505 90.4418 36.5734 95.0861 37.3748L95.0882 37.3751C100.296 38.2566 104.287 40.7406 107.112 44.8283L107.113 44.8296C109.968 48.9386 111.421 54.1261 111.421 60.4277V103.118H88.6198V52.6053C88.6198 49.3857 88.0115 46.8426 86.704 45.0585C85.465 43.3328 83.9868 42.1571 82.2535 41.5738L82.2526 41.5735ZM1.54215 103.118V39.143H24.5251V103.118H1.54215Z"></path>
<path stroke-width="1.33333" stroke="#1D1D1D" fill="#1D1D1D" d="M177.318 60.4277V103.118H154.517V52.6053C154.517 49.3573 153.806 46.6577 152.335 44.5525L152.333 44.5501C150.912 42.535 149.313 40.9896 147.513 39.9603C145.988 39.0757 144.571 38.4137 143.268 37.9912C150.149 36.7532 155.979 36.9834 160.791 38.6223L160.792 38.6228C166.236 40.4648 170.324 43.3895 173.102 47.3772L173.103 47.3786C175.916 51.3952 177.318 55.7425 177.318 60.4277ZM122.723 44.7449L122.723 44.7449C124.964 42.5608 127.617 41.4776 130.717 41.4776C133.815 41.4776 136.452 42.5603 138.679 44.7434L138.682 44.7464C140.918 46.911 142.026 49.5128 142.026 52.6053C142.026 55.6822 140.918 58.3188 138.674 60.5627C136.448 62.789 133.812 63.8845 130.717 63.8845C127.621 63.8845 124.97 62.7891 122.729 60.5627C120.501 58.3203 119.407 55.684 119.407 52.6053C119.407 49.5103 120.502 46.9084 122.723 44.7449ZM139.686 69.9454C140.753 69.8564 141.833 69.7935 142.926 69.761C141.719 71.0123 140.507 72.5936 139.282 74.4993C137.606 77.1069 136.365 79.9537 135.559 83.0287L135.559 83.0291C134.742 86.1558 134.742 89.2741 135.56 92.3727L135.561 92.3777C136.394 95.4365 138.166 97.8047 140.856 99.47L140.859 99.4715C142.805 100.665 144.854 101.281 147.001 101.316C145.909 101.98 144.68 102.564 143.311 103.068L143.31 103.069C141.05 103.907 138.964 104.51 137.05 104.888C134.244 105.398 131.4 105.495 128.516 105.184C125.736 104.875 123.37 103.732 121.402 101.743C119.028 99.2519 117.671 96.2061 117.343 92.5685C117.027 88.8916 117.696 85.6248 119.321 82.7363L119.326 82.7276L119.331 82.7187C120.857 79.8067 123.005 77.3702 125.793 75.4055C128.628 73.427 131.636 71.9193 134.828 70.887C136.482 70.378 138.099 70.063 139.68 69.9459L139.686 69.9454Z"></path>
<path fill="#CA6527" d="M213.479 103.785L181.31 38.4766H205.444L239.19 103.785H213.479Z"></path>
<path stroke-width="1.33333" stroke="#1D1D1D" fill="#1D1D1D" d="M247.478 4.14684L247.478 4.1468C249.719 1.96268 252.373 0.879557 255.472 0.879557C258.57 0.879557 261.173 1.96168 263.337 4.13916L263.337 4.13994C265.488 6.29792 266.569 8.96081 266.569 12.1891C266.569 15.2894 265.493 17.9009 263.338 20.0556C261.176 22.2176 258.572 23.2864 255.472 23.2864C252.37 23.2864 249.717 22.2167 247.476 20.0481C245.257 17.8931 244.162 15.2844 244.162 12.1891C244.162 8.96539 245.262 6.30517 247.478 4.14684ZM243.98 103.118V39.1428H266.963V103.118H243.98Z"></path>
<path stroke-linecap="round" stroke-width="3" stroke="#CA6527" d="M190.113 95.0063L227.315 54.0978"></path>
</svg>
